<?xml version="1.0" standalone="no"?><!DOCTYPE svg PUBLIC "-//W3C//DTD SVG 1.1//EN" "http://www.w3.org/Graphics/SVG/1.1/DTD/svg11.dtd"><svg t="1616589522698" class="icon" viewBox="0 0 1024 1024" version="1.1" xmlns="http://www.w3.org/2000/svg" p-id="4773" xmlns:xlink="http://www.w3.org/1999/xlink" width="200" height="200"><defs><style type="text/css"></style></defs><path d="M869.312 347.488C775.424 203.52 589.536 186.816 480 190.88V35.2A35.2 35.2 0 0 0 444.8 0c-13.504 0-31.936 19.584-32.416 20.096L138.176 294.272c-7.04 7.04-10.368 16.384-10.176 25.664v0.128c-0.192 9.28 3.136 18.624 10.176 25.664l274.208 274.176c0.48 0.48 18.88 20.096 32.384 20.096a35.2 35.2 0 0 0 35.2-35.2v-162.24C903.936 401.024 682.72 1024 682.72 1024c205.248-122.112 332.832-452.096 186.592-676.512z" p-id="4774"></path></svg>