<?xml version="1.0" standalone="no"?><!DOCTYPE svg PUBLIC "-//W3C//DTD SVG 1.1//EN" "http://www.w3.org/Graphics/SVG/1.1/DTD/svg11.dtd"><svg t="1616588404436" class="icon" viewBox="0 0 1045 1024" version="1.1" xmlns="http://www.w3.org/2000/svg" p-id="2381" xmlns:xlink="http://www.w3.org/1999/xlink" width="204.1015625" height="200"><defs><style type="text/css"></style></defs><path d="M738.581333 94.08a32 32 0 0 1 39.125334-17.92l2.901333 1.088 149.333333 64a32 32 0 0 1-22.314666 59.904l-2.901334-1.066667-149.333333-64a32 32 0 0 1-16.810667-42.026666z" fill="#666666" p-id="2382"></path><path d="M917.866667 138.666667l3.072 0.234666a32 32 0 0 1 28.117333 32.554667l-0.213333 3.072-20.8 170.666667a32 32 0 0 1-63.786667-4.650667l0.256-3.072 20.778667-170.666667A32 32 0 0 1 917.866667 138.666667zM511.786667 117.333333a32 32 0 0 1 3.093333 63.850667l-3.093333 0.149333H213.333333a53.333333 53.333333 0 0 0-53.226666 49.834667L160 234.666667v597.333333a53.333333 53.333333 0 0 0 49.834667 53.226667L213.333333 885.333333h597.333334a53.333333 53.333333 0 0 0 53.226666-49.834666L864 832V536.746667a32 32 0 0 1 63.850667-3.093334l0.149333 3.072V832a117.333333 117.333333 0 0 1-112.618667 117.248L810.666667 949.333333H213.333333a117.333333 117.333333 0 0 1-117.248-112.618666L96 832V234.666667a117.333333 117.333333 0 0 1 112.618667-117.248L213.333333 117.333333h298.453334z" fill="#666666" p-id="2383"></path><path d="M886.016 161.6a32 32 0 0 1 19.968 60.8c-153.109333 50.325333-268.330667 164.373333-320.981333 321.130667a32 32 0 0 1-60.672-20.394667c59.093333-175.914667 189.44-304.917333 361.685333-361.536z" fill="#666666" p-id="2384"></path></svg>