<?xml version="1.0" standalone="no"?><!DOCTYPE svg PUBLIC "-//W3C//DTD SVG 1.1//EN" "http://www.w3.org/Graphics/SVG/1.1/DTD/svg11.dtd"><svg t="1616588538973" class="icon" viewBox="0 0 1024 1024" version="1.1" xmlns="http://www.w3.org/2000/svg" p-id="2660" xmlns:xlink="http://www.w3.org/1999/xlink" width="200" height="200"><defs><style type="text/css"></style></defs><path d="M512 114.938776C286.92898 114.938776 104.489796 297.377959 104.489796 522.44898S286.92898 929.959184 512 929.959184 919.510204 747.52 919.510204 522.44898 737.07102 114.938776 512 114.938776z m0 62.693877c190.443102 0 344.816327 154.373224 344.816327 344.816327S702.443102 867.265306 512 867.265306 167.183673 712.892082 167.183673 522.44898 321.556898 177.632653 512 177.632653z" fill="#666666" p-id="2661"></path><path d="M491.102041 303.020408a31.346939 31.346939 0 0 0-31.200653 28.337633L459.755102 334.367347v227.286204c0 8.150204 3.17649 15.945143 8.777143 21.754776l2.215184 2.089795 125.387755 107.081143a31.346939 31.346939 0 0 0 43.049796-45.473959l-2.340572-2.215184-114.395428-97.718857V334.367347a31.346939 31.346939 0 0 0-28.337633-31.200653L491.102041 303.020408zM803.317551 103.235918a31.346939 31.346939 0 0 1 41.942204-2.173387l2.382367 2.152489 146.285715 146.285715a31.346939 31.346939 0 0 1-41.963102 46.497959l-2.382368-2.15249-146.285714-146.285714a31.346939 31.346939 0 0 1 0-44.34547zM220.682449 103.235918a31.346939 31.346939 0 0 0-41.942204-2.173387l-2.382367 2.152489-146.285715 146.285715a31.346939 31.346939 0 0 0 41.963102 46.497959l2.382368-2.15249 146.285714-146.285714a31.346939 31.346939 0 0 0 0-44.34547z" fill="#666666" p-id="2662"></path></svg>