<?xml version="1.0" standalone="no"?><!DOCTYPE svg PUBLIC "-//W3C//DTD SVG 1.1//EN" "http://www.w3.org/Graphics/SVG/1.1/DTD/svg11.dtd"><svg t="1616588491147" class="icon" viewBox="0 0 1024 1024" version="1.1" xmlns="http://www.w3.org/2000/svg" p-id="2521" xmlns:xlink="http://www.w3.org/1999/xlink" width="200" height="200"><defs><style type="text/css"></style></defs><path d="M480.653061 73.142857C255.582041 73.142857 73.142857 255.582041 73.142857 480.653061S255.582041 888.163265 480.653061 888.163265 888.163265 705.724082 888.163265 480.653061 705.724082 73.142857 480.653061 73.142857z m0 62.693878c190.443102 0 344.816327 154.373224 344.816327 344.816326S671.096163 825.469388 480.653061 825.469388 135.836735 671.096163 135.836735 480.653061 290.209959 135.836735 480.653061 135.836735z" fill="#666666" p-id="2522"></path><path d="M751.072653 730.174694a31.346939 31.346939 0 0 1 41.942204-2.173388l2.382367 2.15249 146.285715 146.285714a31.346939 31.346939 0 0 1-41.963102 46.497959l-2.382368-2.152489-146.285714-146.285715a31.346939 31.346939 0 0 1 0-44.345469z" fill="#666666" p-id="2523"></path></svg>