<?xml version="1.0" standalone="no"?><!DOCTYPE svg PUBLIC "-//W3C//DTD SVG 1.1//EN" "http://www.w3.org/Graphics/SVG/1.1/DTD/svg11.dtd"><svg t="1617110131745" class="icon" viewBox="0 0 1024 1024" version="1.1" xmlns="http://www.w3.org/2000/svg" p-id="4721" xmlns:xlink="http://www.w3.org/1999/xlink" width="200" height="200"><defs><style type="text/css"></style></defs><path d="M786.3 203H195.2c-16.6-91-16.8-91.5-17.2-92.4-0.2-0.6-0.4-1.2-0.7-1.8-3.9-9-12.8-15.3-23.3-15.3H92.1c-14 0-25.4 11.4-25.4 25.4 0 14 11.4 25.4 25.4 25.4h40.8L204 554.1c6 30.9 28 59.9 63 63h440.6l67.2-0.1c18.6-0.4 25.4-15.9 25.4-24.8 0-14-11.4-25.4-25.4-25.4 0 0-63.2 0-63.7 0.1H286.5c-21.5-4-28.5-17-32-37-3.2-17.4-6.2-34.1-9.1-50H752c29.7-1 56.4-26.4 65.3-64L847 284.3c10-55.3-24.7-81.3-60.7-81.3z m12.3 83.7l-25 111.3c-0.2 0.6-0.4 1.3-0.6 1.9-7.8 19.1-15.8 28.8-37.8 31-0.6 0.1-1.1 0.1-1.7 0.1h-497c-13.9-76.5-24.4-134.6-32.4-178.9 1.2-0.1 2.4-0.1 3.6-0.1l564.6 0.3c15.4 0 31.4 14 26.3 34.4z" fill="#282828" p-id="4722"></path><path d="M267.1 822.1m-86 0a86 86 0 1 0 172 0 86 86 0 1 0-172 0Z" fill="#282828" p-id="4723"></path><path d="M745.6 822.1m-86 0a86 86 0 1 0 172 0 86 86 0 1 0-172 0Z" fill="#282828" p-id="4724"></path></svg>