<?xml version="1.0" standalone="no"?><!DOCTYPE svg PUBLIC "-//W3C//DTD SVG 1.1//EN" "http://www.w3.org/Graphics/SVG/1.1/DTD/svg11.dtd"><svg t="1616588586491" class="icon" viewBox="0 0 1024 1024" version="1.1" xmlns="http://www.w3.org/2000/svg" p-id="2799" xmlns:xlink="http://www.w3.org/1999/xlink" width="200" height="200"><defs><style type="text/css"></style></defs><path d="M531.957551 71.742694a41.795918 41.795918 0 0 1 16.760163 16.760163l125.659429 231.340408 258.842122 48.023511a41.795918 41.795918 0 0 1 22.695184 69.861877l-181.185306 191.007347 34.335347 260.994612a41.795918 41.795918 0 0 1-59.433796 43.175184L512 819.617959l-237.630694 113.266939a41.795918 41.795918 0 0 1-59.433796-43.154286l34.314449-261.01551-181.185306-191.007347a41.795918 41.795918 0 0 1 22.716082-69.840979l258.842122-48.023511 125.659429-231.340408a41.795918 41.795918 0 0 1 56.675265-16.760163zM512 152.220735l-107.290122 197.548408a62.693878 62.693878 0 0 1-39.706123 30.845388l-3.970612 0.877714-220.995919 40.980898 154.707592 163.087673a62.693878 62.693878 0 0 1 17.094531 47.020408l-0.417959 4.30498-29.319837 222.855837 202.919184-96.715755a62.693878 62.693878 0 0 1 49.96702-1.734531l3.99151 1.734531L741.877551 859.742041l-29.298939-222.855837a62.693878 62.693878 0 0 1 13.792653-48.065306l2.883919-3.260082 154.686694-163.087673-220.995919-40.980898a62.693878 62.693878 0 0 1-41.607837-28.233143l-2.048-3.489959L512 152.220735z" fill="#666666" p-id="2800"></path></svg>