<?xml version="1.0" standalone="no"?><!DOCTYPE svg PUBLIC "-//W3C//DTD SVG 1.1//EN" "http://www.w3.org/Graphics/SVG/1.1/DTD/svg11.dtd"><svg t="1616588637353" class="icon" viewBox="0 0 1024 1024" version="1.1" xmlns="http://www.w3.org/2000/svg" p-id="2937" xmlns:xlink="http://www.w3.org/1999/xlink" width="200" height="200"><defs><style type="text/css"></style></defs><path d="M303.812923 531.692308m-39.384615 0a39.384615 39.384615 0 1 0 78.76923 0 39.384615 39.384615 0 1 0-78.76923 0Z" fill="#666666" p-id="2938"></path><path d="M461.351385 531.692308m-39.384616 0a39.384615 39.384615 0 1 0 78.769231 0 39.384615 39.384615 0 1 0-78.769231 0Z" fill="#666666" p-id="2939"></path><path d="M618.889846 531.692308m-39.384615 0a39.384615 39.384615 0 1 0 78.769231 0 39.384615 39.384615 0 1 0-78.769231 0Z" fill="#666666" p-id="2940"></path><path d="M778.870154 187.076923H137.846154A108.307692 108.307692 0 0 0 29.538462 295.384615v472.615385A108.307692 108.307692 0 0 0 137.846154 876.307692h641.024l4.332308-0.078769A108.307692 108.307692 0 0 0 887.197538 768l-0.019692-23.886769 99.958154-8.487385 2.56-0.334769c22.449231-3.780923 32.590769-31.192615 17.033846-48.718769l-119.552-134.636308V295.384615a108.307692 108.307692 0 0 0-108.307692-108.307692zM137.846154 246.153846h641.024a49.230769 49.230769 0 0 1 49.230769 49.230769v267.795693l0.157539 3.072a29.538462 29.538462 0 0 0 7.286153 16.541538l87.867077 98.934154-68.27323 5.828923a29.538462 29.538462 0 0 0-27.037539 29.420308V768a49.230769 49.230769 0 0 1-49.230769 49.230769H137.846154A49.230769 49.230769 0 0 1 88.615385 768V295.384615A49.230769 49.230769 0 0 1 137.846154 246.153846z" fill="#666666" p-id="2941"></path></svg>