<?xml version="1.0" standalone="no"?><!DOCTYPE svg PUBLIC "-//W3C//DTD SVG 1.1//EN" "http://www.w3.org/Graphics/SVG/1.1/DTD/svg11.dtd"><svg t="1616508103798" class="icon" viewBox="0 0 1024 1024" version="1.1" xmlns="http://www.w3.org/2000/svg" p-id="5175" xmlns:xlink="http://www.w3.org/1999/xlink" width="200" height="200"><defs><style type="text/css"></style></defs><path d="M725.333333 85.333333a42.666667 42.666667 0 0 1 42.666667 42.666667v42.666667h42.666667a128 128 0 0 1 128 128v512a128 128 0 0 1-128 128H213.333333a128 128 0 0 1-128-128V298.666667a128 128 0 0 1 128-128h42.666667V128a42.666667 42.666667 0 1 1 85.333333 0v42.666667h341.333334V128a42.666667 42.666667 0 0 1 42.666666-42.666667z m128 426.666667H170.666667v298.666667a42.666667 42.666667 0 0 0 42.666666 42.666666h597.333334a42.666667 42.666667 0 0 0 42.666666-42.666666v-298.666667z m-128 85.333333a42.666667 42.666667 0 0 1 42.666667 42.666667v85.333333a42.666667 42.666667 0 0 1-42.666667 42.666667h-85.333333a42.666667 42.666667 0 0 1-42.666667-42.666667v-85.333333a42.666667 42.666667 0 0 1 42.666667-42.666667h85.333333zM256 256H213.333333a42.666667 42.666667 0 0 0-42.666666 42.666667v128h682.666666V298.666667a42.666667 42.666667 0 0 0-42.666666-42.666667h-42.666667v42.666667a42.666667 42.666667 0 0 1-85.333333 0V256H341.333333v42.666667a42.666667 42.666667 0 1 1-85.333333 0V256z" p-id="5176"></path></svg>