<?xml version="1.0" standalone="no"?><!DOCTYPE svg PUBLIC "-//W3C//DTD SVG 1.1//EN" "http://www.w3.org/Graphics/SVG/1.1/DTD/svg11.dtd"><svg t="1615894376936" class="icon" viewBox="0 0 1024 1024" version="1.1" xmlns="http://www.w3.org/2000/svg" p-id="17084" xmlns:xlink="http://www.w3.org/1999/xlink" width="200" height="200"><defs><style type="text/css"></style></defs><path d="M512 512m-450.56 0a450.56 450.56 0 1 0 901.12 0 450.56 450.56 0 1 0-901.12 0Z" fill="#131415" p-id="17085"></path><path d="M774.12352 267.4688a40.96 40.96 0 0 1-0.04096 37.64224l-142.11072 274.2272a122.88 122.88 0 0 1-52.5312 52.5312l-274.30912 142.2336a40.96 40.96 0 0 1-55.25504-55.13216l141.6192-274.51392a122.88 122.88 0 0 1 52.8384-52.8384L718.92992 249.856a40.96 40.96 0 0 1 55.1936 17.6128z m-242.5856 197.18144a51.05664 51.05664 0 0 0-55.296 10.8544l-0.45056 0.4096-0.4096 0.45056a50.87232 50.87232 0 0 0-0.06144 71.22944l0.45056 0.45056 0.43008 0.43008a51.07712 51.07712 0 0 0 55.33696 10.8544 51.2 51.2 0 0 0 0-94.67904z" fill="#FFFFFF" p-id="17086"></path></svg>