<?xml version="1.0" standalone="no"?><!DOCTYPE svg PUBLIC "-//W3C//DTD SVG 1.1//EN" "http://www.w3.org/Graphics/SVG/1.1/DTD/svg11.dtd"><svg t="1615893398749" class="icon" viewBox="0 0 1024 1024" version="1.1" xmlns="http://www.w3.org/2000/svg" p-id="15247" xmlns:xlink="http://www.w3.org/1999/xlink" width="200" height="200"><defs><style type="text/css"></style></defs><path d="M1009.70894 574.900896L837.161363 401.927044V201.989473a43.350032 43.350032 0 0 0-43.350032-43.350032H594.473435l-51.340887-51.470938a43.350032 43.350032 0 0 0-30.691823-12.737684c-0.195075 0.01445-0.382925 0-0.585225 0-11.466083-0.2601-22.664842 4.096578-31.277048 12.730459L14.009285 574.900896a43.350032 43.350032 0 0 0 61.383645 61.224695l40.43113-40.53228v286.65931a43.350032 43.350032 0 0 0 43.350032 43.350032h235.123347a43.350032 43.350032 0 0 0 43.350032-43.350032v-194.641642h148.423283v194.641642a43.350032 43.350032 0 0 0 43.350032 43.350032h235.123347a43.350032 43.350032 0 0 0 43.350032-43.350032V595.600536l40.43113 40.53228a43.219982 43.219982 0 0 0 30.691822 12.737684 43.357257 43.357257 0 0 0 30.691823-73.969604zM750.4613 245.339505V315.010231l-69.504551-69.677951h69.504551z m70.732801 593.570309H672.770818v-194.641642a43.350032 43.350032 0 0 0-43.350032-43.350032H394.297439a43.350032 43.350032 0 0 0-43.350032 43.350032v194.641642H202.524123V508.683723l309.331377-310.104453 309.331376 310.104453v330.226091z" fill="#8a8a8a" p-id="15248"></path></svg>