<?xml version="1.0" standalone="no"?><!DOCTYPE svg PUBLIC "-//W3C//DTD SVG 1.1//EN" "http://www.w3.org/Graphics/SVG/1.1/DTD/svg11.dtd"><svg t="1615893356769" class="icon" viewBox="0 0 1024 1024" version="1.1" xmlns="http://www.w3.org/2000/svg" p-id="13254" xmlns:xlink="http://www.w3.org/1999/xlink" width="200" height="200"><defs><style type="text/css"></style></defs><path d="M520.789333 149.333333C727.68 149.333333 896 288.106667 896 458.666667S727.68 768 520.789333 768c-24.064 0-48.810667-2.112-73.6-6.250667a109.994667 109.994667 0 0 0-17.92-1.493333c-15.146667 0-29.781333 3.114667-43.477333 9.28l-4.394667 1.984-4.053333 2.624L277.333333 838.698667V695.125333l-23.018666-19.2C184.192 617.429333 145.578667 540.266667 145.578667 458.666667c0-170.56 168.32-309.333333 375.210666-309.333334m0-64C278.208 85.333333 81.578667 252.48 81.578667 458.666667c0 104.384 50.517333 198.656 131.754666 266.389333v153.365333A42.538667 42.538667 0 0 0 273.493333 917.333333l138.538667-89.429333c5.461333-2.453333 11.306667-3.648 17.216-3.648 2.453333 0 4.906667 0.213333 7.36 0.618667 27.264 4.565333 55.36 7.125333 84.181333 7.125333C763.349333 832 960 664.853333 960 458.666667S763.349333 85.333333 520.789333 85.333333z" fill="#8a8a8a" p-id="13255"></path><path d="M661.333333 362.666667H384a21.333333 21.333333 0 0 1 0-42.666667h277.333333a21.333333 21.333333 0 0 1 0 42.666667zM661.333333 490.666667H384a21.333333 21.333333 0 0 1 0-42.666667h277.333333a21.333333 21.333333 0 0 1 0 42.666667zM661.333333 618.666667H384a21.333333 21.333333 0 0 1 0-42.666667h277.333333a21.333333 21.333333 0 0 1 0 42.666667z" fill="#8a8a8a" p-id="13256"></path></svg>