<?xml version="1.0" standalone="no"?><!DOCTYPE svg PUBLIC "-//W3C//DTD SVG 1.1//EN" "http://www.w3.org/Graphics/SVG/1.1/DTD/svg11.dtd"><svg t="1615894436853" class="icon" viewBox="0 0 1024 1024" version="1.1" xmlns="http://www.w3.org/2000/svg" p-id="19242" xmlns:xlink="http://www.w3.org/1999/xlink" width="200" height="200"><defs><style type="text/css"></style></defs><path d="M877.02511746 177.87042539H149.26344127c-23.45772698 0-41.76619682 18.88060952-41.76619682 41.76619684v514.35357459c0 23.45772698 18.88060952 41.76619682 41.76619682 41.76619684h73.23387936l-20.59702857 149.90059682v1.71641904c0 6.86567619 5.72139682 13.1592127 13.15921271 13.15921271 2.28855873 0 5.14925714-0.57213968 6.86567618-2.28855874L469.08952381 775.75639366h407.93559365c23.45772698 0 41.76619682-18.88060952 41.76619683-41.76619684V220.20876191c0.57213968-23.45772698-18.30846984-42.33833651-41.76619683-42.33833652zM578.94034286 577.22392381H308.31827302c-16.01991111 0-29.17912381-13.1592127-29.17912382-29.17912381s13.1592127-29.17912381 29.17912382-29.17912381h270.62206984c16.01991111 0 29.17912381 13.1592127 29.1791238 29.17912381s-13.1592127 29.17912381-29.1791238 29.17912381z m129.30356825-143.03492063H308.31827302c-16.01991111 0-29.17912381-13.1592127-29.17912382-29.17912381s13.1592127-29.17912381 29.17912382-29.17912382h399.92563809c16.01991111 0 29.17912381 13.1592127 29.17912381 29.17912382s-12.58707302 29.17912381-29.17912381 29.17912381z" fill="#2C2C2C" p-id="19243"></path></svg>